<svg width="256" height="256" viewBox="0 0 256 256" fill="none" xmlns="http://www.w3.org/2000/svg">
  <!-- Background circle with gradient -->
  <defs>
    <linearGradient id="grad" x1="0%" y1="0%" x2="100%" y2="100%">
      <stop offset="0%" style="stop-color:#7C3AED;stop-opacity:1" />
      <stop offset="100%" style="stop-color:#A855F7;stop-opacity:1" />
    </linearGradient>
  </defs>

  <!-- Circle background -->
  <circle cx="128" cy="128" r="120" fill="url(#grad)"/>

  <!-- Heart icon -->
  <path d="M128 180
           C 128 180, 64 130, 64 90
           C 64 65, 80 50, 100 50
           C 115 50, 125 60, 128 65
           C 131 60, 141 50, 156 50
           C 176 50, 192 65, 192 90
           C 192 130, 128 180, 128 180Z"
        fill="white" stroke="white" stroke-width="4"/>

  <!-- Pulse line (ECG style) -->
  <path d="M 40 140
           L 70 140
           L 80 140
           L 90 120
           L 100 160
           L 110 140
           L 128 140
           L 138 140
           L 148 120
           L 158 160
           L 168 140
           L 216 140"
        stroke="white" stroke-width="4" fill="none" stroke-linecap="round" stroke-linejoin="round"/>
</svg>